<?xml version="1.0" encoding="UTF-8"?>
<svg version="1.1" xmlns="http://www.w3.org/2000/svg" width="1024" height="1024">
<path d="M0 0 C1.94164536 0.00273422 1.94164536 0.00273422 3.92251587 0.00552368 C23.81110007 0.05258292 43.33987002 0.61034028 63.0625 3.3125 C63.71490662 3.39971313 64.36731323 3.48692627 65.03948975 3.57678223 C84.25827517 6.14759852 103.22749046 9.67697749 122.0625 14.3125 C123.12065918 14.57256836 124.17881836 14.83263672 125.26904297 15.10058594 C187.52852478 30.64405321 247.3170716 58.29804523 299.0625 96.3125 C300.12339844 97.08980469 301.18429687 97.86710937 302.27734375 98.66796875 C305.22620578 100.85733412 308.14953624 103.075622 311.0625 105.3125 C311.59907227 105.72290527 312.13564453 106.13331055 312.68847656 106.55615234 C326.80323844 117.38018155 340.15049479 129.08385997 353.0625 141.3125 C354.02929688 142.1271875 354.99609375 142.941875 355.9921875 143.78125 C358.0625 146.3125 358.0625 146.3125 357.90844727 148.92407227 C356.85039124 153.16209813 355.29498738 157.04089029 353.59765625 161.05859375 C353.24908066 161.89725479 352.90050507 162.73591583 352.54136658 163.59999084 C351.40894015 166.31936672 350.26720947 169.03472048 349.125 171.75 C348.33621454 173.63786461 347.54780479 175.52588624 346.75976562 177.4140625 C342.56905967 187.43707016 338.3132368 197.42824071 333.93603516 207.37133789 C327.47670275 222.11894626 321.43276629 237.04805282 315.28710938 251.92822266 C311.78214669 260.41355044 308.26618625 268.89431848 304.75 277.375 C304.40484344 278.20771423 304.05968689 279.04042847 303.70407104 279.89837646 C297.41613048 295.06772584 291.101806 310.22602357 284.78256226 325.38235474 C279.0274726 339.18618637 273.28607352 352.99557192 267.5625 366.8125 C261.47498427 381.50695541 255.36908359 396.19366166 249.25 410.875 C248.83317963 411.87508087 248.41635925 412.87516174 247.98690796 413.9055481 C244.58569992 422.06567504 241.1835523 430.22541019 237.78137207 438.38513184 C231.93194269 452.41450498 226.08446635 466.44468817 220.24279785 480.47729492 C219.46513278 482.34533185 218.68738417 484.21333401 217.9095459 486.08129883 C210.06635152 504.91746983 202.26083312 523.76620911 194.625 542.6875 C187.45719151 560.44722325 180.06379863 578.10929311 172.64727783 595.76631165 C168.03485466 606.75184047 163.45492415 617.75089222 158.875 628.75 C158.02344519 630.79476232 157.17188273 632.83952145 156.3203125 634.88427734 C155.073251 637.87876415 153.82623279 640.87326894 152.5793457 643.86782837 C150.07536427 649.88131762 147.5697652 655.89412919 145.0625 661.90625 C138.29529908 678.13455719 131.54787642 694.37090821 124.81759644 710.61456299 C118.87395057 724.95821389 112.91068912 739.29362808 106.9375 753.625 C106.51307617 754.64332916 106.08865234 755.66165833 105.65136719 756.71084595 C102.0989897 765.23368982 98.54558955 773.75610718 94.99169922 782.27832031 C93.11914462 786.7687462 91.24687963 791.2592927 89.375 795.75 C89.075867 796.46761505 88.77673401 797.1852301 88.46853638 797.92459106 C83.58945412 809.63119944 78.7296965 821.34576113 73.875 833.0625 C67.68292504 848.0067903 61.4732825 862.94367843 55.25 877.875 C54.83363281 878.87399323 54.41726563 879.87298645 53.98828125 880.9022522 C50.58661543 889.06347777 47.18401033 897.22431167 43.78137207 905.38513184 C41.23236223 911.49872136 38.68363858 917.61243005 36.13534546 923.72631836 C35.29740561 925.73661111 34.45937308 927.74686524 33.62124634 929.75708008 C28.81243137 941.29136307 24.0160359 952.83061162 19.24372864 964.38005066 C16.44214577 971.15908428 13.63094108 977.93405858 10.81022644 984.70515442 C9.34725133 988.21781286 7.88795993 991.73178023 6.44433594 995.25244141 C5.08130099 998.57029639 3.7001881 1001.87990018 2.3125 1005.1875 C1.75731689 1006.56047241 1.75731689 1006.56047241 1.19091797 1007.96118164 C-0.34856248 1011.5794259 -1.3416344 1013.83691783 -4.453125 1016.3203125 C-8.65286075 1017.99756545 -12.17648676 1018.44027656 -16.70703125 1018.4453125 C-17.83681396 1018.44740723 -18.96659668 1018.44950195 -20.13061523 1018.45166016 C-21.92221069 1018.44465088 -21.92221069 1018.44465088 -23.75 1018.4375 C-24.96437744 1018.43411621 -26.17875488 1018.43073242 -27.42993164 1018.42724609 C-52.20761572 1018.28495021 -52.20761572 1018.28495021 -56.9375 1015.3125 C-58.72978493 1012.92278675 -58.97293183 1011.70346428 -58.70239258 1008.71826172 C-57.73691936 1004.41939437 -56.13394476 1000.6039645 -54.38671875 996.5703125 C-53.83828056 995.28167801 -53.83828056 995.28167801 -53.27876282 993.9670105 C-52.48431987 992.10212709 -51.68693896 990.23849314 -50.88696289 988.37597656 C-48.70722387 983.30046122 -46.54902602 978.21577223 -44.38671875 973.1328125 C-43.93618134 972.07555969 -43.48564392 971.01830688 -43.02145386 969.92901611 C-38.68364303 959.74192175 -34.42374661 949.52309249 -30.17724609 939.29766846 C-23.213498 922.5297502 -16.19903994 905.78418297 -9.125 889.0625 C-1.53366249 871.11730775 5.9907815 853.14536904 13.46679688 835.15185547 C15.76527674 829.62029782 18.07021318 824.09143206 20.375 818.5625 C22.67179994 813.05129127 24.96813266 807.53989087 27.26171875 802.02734375 C32.76477681 788.80410852 38.28557713 775.58827582 43.8125 762.375 C44.19966187 761.44936249 44.58682373 760.52372498 44.98571777 759.57003784 C49.01152349 749.94807741 53.04565904 740.32987433 57.125 730.73046875 C57.44156555 729.98551651 57.7581311 729.24056427 58.08428955 728.47303772 C59.54373795 725.04070794 61.00579621 721.60951788 62.47167969 718.17993164 C65.68394627 710.65019038 68.77654081 703.0829689 71.77441406 695.46582031 C72.52215476 693.63530121 73.30973247 691.81824837 74.19433594 690.04980469 C77.26029303 683.91444173 76.69539352 675.42039613 75.36328125 668.87890625 C73.9114559 664.89837607 71.92015139 662.22027209 69.0625 659.1875 C68.63066406 658.68863281 68.19882812 658.18976562 67.75390625 657.67578125 C60.12059509 649.39374676 49.08921589 646.83868725 38.5625 644.0625 C37.81207428 643.86129547 37.06164856 643.66009094 36.28848267 643.45278931 C3.76546571 634.76810476 -29.24655658 627.81311187 -62.0713501 620.37579346 C-125.62761867 605.97366439 -188.38937959 590.25702673 -247.9375 563.3125 C-248.7526709 562.94624512 -249.5678418 562.57999023 -250.40771484 562.20263672 C-279.85826547 548.92475831 -306.56836772 531.46178865 -330.9375 510.3125 C-331.62714844 509.735 -332.31679688 509.1575 -333.02734375 508.5625 C-344.70060548 498.69081989 -354.86651581 487.58541394 -363.9375 475.3125 C-364.3598291 474.75095215 -364.7821582 474.1894043 -365.21728516 473.61083984 C-398.1254907 429.77958797 -410.83111779 377.42230903 -411.9375 323.3125 C-411.96473145 322.32813965 -411.99196289 321.3437793 -412.02001953 320.32958984 C-413.46823813 265.43390755 -398.06074594 207.88789896 -366.9375 162.3125 C-366.23391357 161.26956787 -366.23391357 161.26956787 -365.51611328 160.20556641 C-359.56413166 151.41986851 -353.30984105 143.02691322 -346.3203125 135.0390625 C-344.4652736 132.91641143 -342.69601937 130.76316139 -340.9375 128.5625 C-337.31670242 124.36892088 -332.92950026 121.06762828 -328.59912109 117.64160156 C-326.81620908 116.21548152 -325.05731048 114.76316417 -323.30078125 113.3046875 C-292.88234291 88.11622086 -259.16615675 67.99961485 -223.9375 50.3125 C-223.08091797 49.87953613 -222.22433594 49.44657227 -221.34179688 49.00048828 C-188.01576627 32.26154374 -152.13290007 20.92758691 -115.9375 12.3125 C-114.92655273 12.06661133 -113.91560547 11.82072266 -112.87402344 11.56738281 C-99.51981405 8.36035959 -86.04396117 6.38455238 -72.4375 4.625 C-71.64690186 4.52208649 -70.85630371 4.41917297 -70.04174805 4.31314087 C-46.68241803 1.3076215 -23.55553082 -0.06909779 0 0 Z M-101.9375 245.3125 C-101.9375 245.9725 -101.9375 246.6325 -101.9375 247.3125 C-103.2575 247.6425 -104.5775 247.9725 -105.9375 248.3125 C-105.9375 248.9725 -105.9375 249.6325 -105.9375 250.3125 C-107.0203125 250.6528125 -107.0203125 250.6528125 -108.125 251 C-112.80552016 253.18424274 -116.12819125 257.0246077 -118.9375 261.3125 C-118.9375 261.9725 -118.9375 262.6325 -118.9375 263.3125 C-119.5975 263.3125 -120.2575 263.3125 -120.9375 263.3125 C-131.18311349 281.06824764 -136.32378054 298.61420632 -132.27734375 319.29296875 C-127.08000446 338.12488644 -112.74801969 350.53061083 -96.421875 359.85546875 C-68.61428144 375.24601979 -37.05835515 383.52234051 -6.33203125 390.953125 C-5.30765426 391.20138503 -5.30765426 391.20138503 -4.26258278 391.45466042 C13.47588331 395.74218927 31.31068515 399.59749438 49.14010334 403.48492527 C87.21399834 411.78640031 125.132864 420.40437549 162.82763672 430.30102539 C163.89643066 430.5768042 164.96522461 430.85258301 166.06640625 431.13671875 C166.93724854 431.36447998 167.80809082 431.59224121 168.70532227 431.8269043 C172.22916041 432.5528405 175.47914786 432.51923185 179.0625 432.3125 C179.0625 431.6525 179.0625 430.9925 179.0625 430.3125 C180.0525 430.3125 181.0425 430.3125 182.0625 430.3125 C182.7225 428.6625 183.3825 427.0125 184.0625 425.3125 C184.7225 425.3125 185.3825 425.3125 186.0625 425.3125 C196.26111448 401.19876891 206.45594213 377.08339905 216.53686523 352.92016602 C217.27063801 351.16160751 218.00444314 349.40306249 218.73828125 347.64453125 C219.09665573 346.78561783 219.45503021 345.92670441 219.82426453 345.04176331 C221.97854494 339.8855514 224.15226411 334.73806815 226.34329224 329.59736633 C227.73936086 326.31964775 229.12770748 323.03868644 230.51525879 319.75735474 C231.15865963 318.24163013 231.80572228 316.72745327 232.45690918 315.21505737 C238.25664654 301.7404465 244.54007925 287.00426136 239.10546875 272.4609375 C237.34971375 268.84421372 235.20857146 265.83991952 232.0625 263.3125 C228.84947422 262.27176864 228.84947422 262.27176864 226.0625 262.3125 C226.0625 261.6525 226.0625 260.9925 226.0625 260.3125 C161.26678451 234.81604927 94.16055549 218.0465508 24.1875 218.125 C23.19183014 218.12560425 22.19616028 218.1262085 21.1703186 218.12683105 C-18.94165795 218.19286496 -68.28266117 220.45762901 -101.9375 245.3125 Z " fill="#56895B" transform="translate(512.9375,-0.3125)"/>
<path d="M0 0 C11.11462537 9.1561824 22.38307536 18.89241912 31.41796875 30.13671875 C32.32644102 31.23338939 33.23533787 32.32970837 34.14453125 33.42578125 C51.11772029 54.06242538 64.46855218 76.91051882 73.41796875 102.13671875 C73.83103271 103.2973584 73.83103271 103.2973584 74.25244141 104.48144531 C83.02219549 129.59074724 87.76006797 156.55548718 88.41796875 183.13671875 C88.4452002 184.20857422 88.47243164 185.28042969 88.50048828 186.38476562 C89.51993085 234.21521557 82.83318426 302.2473253 48.87109375 339.59375 C48.0615625 340.43292969 47.25203125 341.27210938 46.41796875 342.13671875 C45.47222154 343.17954373 44.52972652 344.22532391 43.58984375 345.2734375 C36.0060991 353.64821163 28.01842446 361.63786703 20.04296875 369.63671875 C19.52709198 370.15527435 19.01121521 370.67382996 18.47970581 371.20809937 C12.63970864 377.07109093 6.73056188 382.77815238 0.41796875 388.13671875 C-0.66540427 389.08571 -1.74748528 390.03617869 -2.828125 390.98828125 C-11.77081978 398.78879301 -21.05816226 406.06082752 -30.58203125 413.13671875 C-31.68901367 413.95922119 -31.68901367 413.95922119 -32.81835938 414.79833984 C-58.58114762 433.85183549 -85.95971339 449.7664228 -114.58203125 464.13671875 C-115.43861328 464.56968262 -116.29519531 465.00264648 -117.17773438 465.44873047 C-161.46495776 487.69324512 -220.88126244 510.50807426 -271.515625 510.234375 C-272.57587891 510.23115234 -273.63613281 510.22792969 -274.72851562 510.22460938 C-275.81455078 510.21623047 -276.90058594 510.20785156 -278.01953125 510.19921875 C-279.13263672 510.19470703 -280.24574219 510.19019531 -281.39257812 510.18554688 C-284.12245226 510.17383068 -286.85221299 510.15742574 -289.58203125 510.13671875 C-288.96924757 504.54527984 -286.99310057 499.86185893 -284.8125 494.73828125 C-284.23042786 493.34894882 -284.23042786 493.34894882 -283.63659668 491.93154907 C-282.35344555 488.87243551 -281.06143197 485.81714629 -279.76953125 482.76171875 C-278.86561604 480.61063562 -277.96238796 478.45926363 -277.05981445 476.30761719 C-275.17925303 471.82602556 -273.29571711 467.34570129 -271.41015625 462.86621094 C-267.42416683 453.39010445 -263.4756223 443.89843625 -259.52642822 434.4069519 C-257.43983294 429.3930133 -255.35069095 424.38013616 -253.26171875 419.3671875 C-252.86097137 418.40537064 -252.460224 417.44355377 -252.04733276 416.45259094 C-249.56245615 410.48882966 -247.07649429 404.52552182 -244.58984375 398.5625 C-238.17471723 383.17745862 -231.77509951 367.78612675 -225.39453125 352.38671875 C-219.20245629 337.44242845 -212.99281375 322.50554032 -206.76953125 307.57421875 C-206.14498047 306.07572891 -206.14498047 306.07572891 -205.5078125 304.54696655 C-202.10614668 296.38574098 -198.70354158 288.22490708 -195.30090332 280.06408691 C-192.33167802 272.94264532 -189.36281649 265.82105223 -186.39453125 258.69921875 C-185.97746918 257.69857391 -185.5604071 256.69792908 -185.13070679 255.66696167 C-179.08815518 241.16767956 -173.06340627 226.661114 -167.05148315 212.14910889 C-161.20344864 198.03380742 -155.33497638 183.92708981 -149.45703125 169.82421875 C-148.81971573 168.29509354 -148.81971573 168.29509354 -148.16952515 166.7350769 C-144.61760544 158.21333166 -141.06466271 149.69201308 -137.51123047 141.17089844 C-135.63867587 136.68047255 -133.76641088 132.18992605 -131.89453125 127.69921875 C-131.59539825 126.9816037 -131.29626526 126.26398865 -130.98806763 125.52462769 C-126.46322356 114.66795944 -121.95433856 103.80473245 -117.45205688 92.93869019 C-114.55769108 85.95414191 -111.66082961 78.97062834 -108.76409912 71.98706055 C-107.52803493 69.00651643 -106.2925725 66.02572328 -105.05712891 63.04492188 C-86.58963135 18.49822782 -86.58963135 18.49822782 -78.703125 0.92578125 C-77.33841721 -2.1193548 -76.03535571 -5.1756367 -74.8046875 -8.27734375 C-70.24301066 -19.75529255 -70.24301066 -19.75529255 -64.58203125 -22.86328125 C-39.55138435 -32.27521148 -18.24160817 -14.72212477 0 0 Z " fill="#476B4A" transform="translate(849.58203125,509.86328125)"/>
</svg>
